<?xml version="1.0" encoding="utf-8"?>
<!-- Generator: Adobe Illustrator 21.0.0, SVG Export Plug-In . SVG Version: 6.00 Build 0)  -->
<svg version="1.1" xmlns="http://www.w3.org/2000/svg" xmlns:xlink="http://www.w3.org/1999/xlink" class="icon" x="0px" y="0px"
	 viewBox="0 0 235.5 257.2" style="enable-background:new 0 0 235.5 257.2;" xml:space="preserve">
<style type="text/css">
	.st0{fill:#F26739;}
	.st1{fill:#F89938;}
	.st2{fill:#983620;}
	.st3{fill:#CB6828;}
	.st4{fill:#F68D3A;}
	.st5{fill:#FAA441;}
	.st6{fill:#FAC03A;}
	.st7{fill:url(#SVGID_1_);}
	.st8{fill:url(#SVGID_2_);}
	.st9{fill:#BE4D2B;}
	.st10{fill:#E5822B;}
	.st11{fill:#A14223;}
	.st12{fill:#FAA741;}
	.st13{fill:#FFCD05;}
</style>
<g id="Layer_2">
	<polygon class="st0" points="24.2,175.2 77.7,241.7 88,205.2 34.7,158.6 	"/>
</g>
<g id="Layer_3">
	<polygon class="st1" points="77.7,241.7 82.9,207 199.2,193 204.7,220.9 	"/>
</g>
<g id="Layer_4">
	<polygon class="st2" points="30.9,135.5 33.7,160.2 82.4,210.2 84.1,167.4 76.4,165.5 	"/>
</g>
<g id="Layer_5">
	<polygon class="st3" points="82.4,210.2 199.4,193.9 207.5,154.8 83.4,166.5 	"/>
</g>
<g id="Layer_6">
	<polygon class="st4" points="75.9,171.9 77.7,145.4 25.1,111.2 24.2,134.4 	"/>
</g>
<g id="Layer_7">
	<polygon class="st5" points="75.9,143 215.4,132.9 218.8,132.9 216.2,157.7 75.9,171.9 	"/>
</g>
<g id="Layer_8">
	<polygon class="st6" points="23,110.6 156.9,108.2 218.8,132.9 75.9,144.2 	"/>
</g>
<g id="Layer_9">
	<linearGradient id="SVGID_1_" gradientUnits="userSpaceOnUse" x1="94.5206" y1="140.737" x2="94.5206" y2="110.5649">
		<stop  offset="0" style="stop-color:#983620"/>
		<stop  offset="4.392678e-02" style="stop-color:#A03E21"/>
		<stop  offset="0.2256" style="stop-color:#BA5C28"/>
		<stop  offset="0.4112" style="stop-color:#D2742F"/>
		<stop  offset="0.6" style="stop-color:#E48734"/>
		<stop  offset="0.7937" style="stop-color:#F19337"/>
		<stop  offset="1" style="stop-color:#F89938"/>
	</linearGradient>
	<polygon class="st7" points="32.2,113.9 156.8,110.6 150.8,135.9 76.3,140.7 	"/>
</g>
<g id="Layer_10">
	<linearGradient id="SVGID_2_" gradientUnits="userSpaceOnUse" x1="173.8632" y1="145.2486" x2="183.5394" y2="121.2991">
		<stop  offset="0" style="stop-color:#983620"/>
		<stop  offset="0.1972" style="stop-color:#AB4726"/>
		<stop  offset="0.4539" style="stop-color:#BD582D"/>
		<stop  offset="0.7183" style="stop-color:#C96331"/>
		<stop  offset="1" style="stop-color:#CD6632"/>
	</linearGradient>
	<polygon class="st8" points="210.3,132.1 156.8,110.6 150.7,135.9 	"/>
</g>
<g id="Layer_17">
	<path class="st9" d="M28.6,20.4l-9.3,75.5C19.3,95.9,0.7,14.9,28.6,20.4z"/>
</g>
<g id="Layer_12">
	<polygon class="st10" points="25.1,111.9 36,24.5 190.4,27.7 158.2,108.7 	"/>
</g>
<g id="Layer_13">
	<polygon class="st9" points="33.9,106.6 48.4,35.7 179.2,36.6 151.6,104.2 	"/>
</g>
<g id="Layer_14">
	<path class="st11" d="M179.2,36.6l-27.7,67.7c0,0-22.6-21-17.5-68"/>
</g>
<g id="Layer_15">
	<polygon class="st4" points="25.1,111.9 17.4,107.5 28.4,18 39.7,27.7 	"/>
</g>
<g id="Layer_16">
	<polygon class="st12" points="28.4,18 170.8,16.1 190.4,27.7 39.7,27.7 	"/>
</g>
<g id="Layer_18">
	<polygon class="st13" points="90.2,124.7 50,70.4 76.9,57.1 	"/>
	<polygon class="st13" points="116.7,113.1 105.9,58 129.6,58 	"/>
	<polygon class="st13" points="147.4,119.7 175.6,62.1 204.6,78.8 	"/>
	<g>
	</g>
	<g>
	</g>
	<g>
	</g>
	<g>
	</g>
	<g>
	</g>
	<g>
	</g>
</g>
</svg>
